<mxfile host="app.diagrams.net" modified="2023-06-01T01:53:34.032Z" agent="Mozilla/5.0 (Windows NT 10.0; Win64; x64) AppleWebKit/537.36 (KHTML, like Gecko) Chrome/115.0.0.0 Safari/537.36 Edg/115.0.0.0" etag="fU8RUCQFqwMSMdvTPpLn" version="21.3.6" type="github">
  <diagram name="Page-1" id="2YBvvXClWsGukQMizWep">
    <mxGraphModel dx="2276" dy="746" grid="1" gridSize="10" guides="1" tooltips="1" connect="1" arrows="1" fold="1" page="1" pageScale="1" pageWidth="850" pageHeight="1100" math="0" shadow="0">
      <root>
        <mxCell id="0" />
        <mxCell id="1" parent="0" />
        <mxCell id="aM9ryv3xv72pqoxQDRHE-1" value="ImServerListenerAdapter" style="shape=umlLifeline;perimeter=lifelinePerimeter;whiteSpace=wrap;html=1;container=0;dropTarget=0;collapsible=0;recursiveResize=0;outlineConnect=0;portConstraint=eastwest;newEdgeStyle={&quot;edgeStyle&quot;:&quot;elbowEdgeStyle&quot;,&quot;elbow&quot;:&quot;vertical&quot;,&quot;curved&quot;:0,&quot;rounded&quot;:0};" parent="1" vertex="1">
          <mxGeometry x="20" y="30" width="150" height="300" as="geometry" />
        </mxCell>
        <mxCell id="uTipOrtx8uae4RCYPng3-7" style="edgeStyle=elbowEdgeStyle;rounded=0;orthogonalLoop=1;jettySize=auto;html=1;elbow=vertical;" parent="aM9ryv3xv72pqoxQDRHE-1" source="aM9ryv3xv72pqoxQDRHE-2" target="aM9ryv3xv72pqoxQDRHE-2" edge="1">
          <mxGeometry relative="1" as="geometry">
            <mxPoint x="-30" y="180" as="targetPoint" />
            <Array as="points">
              <mxPoint x="140" y="110" />
            </Array>
          </mxGeometry>
        </mxCell>
        <mxCell id="uTipOrtx8uae4RCYPng3-9" value="onAfterConnected" style="edgeLabel;html=1;align=center;verticalAlign=middle;resizable=0;points=[];" parent="uTipOrtx8uae4RCYPng3-7" vertex="1" connectable="0">
          <mxGeometry x="-0.0767" y="-1" relative="1" as="geometry">
            <mxPoint as="offset" />
          </mxGeometry>
        </mxCell>
        <mxCell id="aM9ryv3xv72pqoxQDRHE-2" value="" style="html=1;points=[];perimeter=orthogonalPerimeter;outlineConnect=0;targetShapes=umlLifeline;portConstraint=eastwest;newEdgeStyle={&quot;edgeStyle&quot;:&quot;elbowEdgeStyle&quot;,&quot;elbow&quot;:&quot;vertical&quot;,&quot;curved&quot;:0,&quot;rounded&quot;:0};" parent="aM9ryv3xv72pqoxQDRHE-1" vertex="1">
          <mxGeometry x="70" y="65" width="10" height="75" as="geometry" />
        </mxCell>
        <mxCell id="aM9ryv3xv72pqoxQDRHE-3" value="ws连接" style="html=1;verticalAlign=bottom;startArrow=oval;endArrow=block;startSize=8;edgeStyle=elbowEdgeStyle;elbow=vertical;curved=0;rounded=0;" parent="aM9ryv3xv72pqoxQDRHE-1" target="aM9ryv3xv72pqoxQDRHE-2" edge="1">
          <mxGeometry relative="1" as="geometry">
            <mxPoint x="-50" y="70" as="sourcePoint" />
          </mxGeometry>
        </mxCell>
        <mxCell id="uTipOrtx8uae4RCYPng3-19" value="DefaultImServerListener" style="shape=umlLifeline;perimeter=lifelinePerimeter;whiteSpace=wrap;html=1;container=0;dropTarget=0;collapsible=0;recursiveResize=0;outlineConnect=0;portConstraint=eastwest;newEdgeStyle={&quot;edgeStyle&quot;:&quot;elbowEdgeStyle&quot;,&quot;elbow&quot;:&quot;vertical&quot;,&quot;curved&quot;:0,&quot;rounded&quot;:0};" parent="1" vertex="1">
          <mxGeometry x="230" y="30" width="150" height="300" as="geometry" />
        </mxCell>
        <mxCell id="uTipOrtx8uae4RCYPng3-23" value="" style="html=1;points=[];perimeter=orthogonalPerimeter;outlineConnect=0;targetShapes=umlLifeline;portConstraint=eastwest;newEdgeStyle={&quot;edgeStyle&quot;:&quot;elbowEdgeStyle&quot;,&quot;elbow&quot;:&quot;vertical&quot;,&quot;curved&quot;:0,&quot;rounded&quot;:0};" parent="uTipOrtx8uae4RCYPng3-19" vertex="1">
          <mxGeometry x="70" y="110" width="10" height="40" as="geometry" />
        </mxCell>
        <mxCell id="uTipOrtx8uae4RCYPng3-27" value="ImServerHandlerAdapter" style="shape=umlLifeline;perimeter=lifelinePerimeter;whiteSpace=wrap;html=1;container=0;dropTarget=0;collapsible=0;recursiveResize=0;outlineConnect=0;portConstraint=eastwest;newEdgeStyle={&quot;edgeStyle&quot;:&quot;elbowEdgeStyle&quot;,&quot;elbow&quot;:&quot;vertical&quot;,&quot;curved&quot;:0,&quot;rounded&quot;:0};" parent="1" vertex="1">
          <mxGeometry x="450" y="30" width="150" height="300" as="geometry" />
        </mxCell>
        <mxCell id="uTipOrtx8uae4RCYPng3-28" value="" style="html=1;points=[];perimeter=orthogonalPerimeter;outlineConnect=0;targetShapes=umlLifeline;portConstraint=eastwest;newEdgeStyle={&quot;edgeStyle&quot;:&quot;elbowEdgeStyle&quot;,&quot;elbow&quot;:&quot;vertical&quot;,&quot;curved&quot;:0,&quot;rounded&quot;:0};" parent="uTipOrtx8uae4RCYPng3-27" vertex="1">
          <mxGeometry x="70" y="130" width="10" height="110" as="geometry" />
        </mxCell>
        <mxCell id="uTipOrtx8uae4RCYPng3-12" style="edgeStyle=elbowEdgeStyle;rounded=0;orthogonalLoop=1;jettySize=auto;html=1;elbow=vertical;curved=0;" parent="1" source="aM9ryv3xv72pqoxQDRHE-2" target="uTipOrtx8uae4RCYPng3-23" edge="1">
          <mxGeometry relative="1" as="geometry">
            <mxPoint x="350" y="160" as="targetPoint" />
            <Array as="points">
              <mxPoint x="200" y="160" />
            </Array>
          </mxGeometry>
        </mxCell>
        <mxCell id="dj0KH5TmfMMsHhFyR2nc-1" value="onAfterConnected()" style="edgeLabel;html=1;align=center;verticalAlign=middle;resizable=0;points=[];" parent="uTipOrtx8uae4RCYPng3-12" vertex="1" connectable="0">
          <mxGeometry x="-0.14" y="-2" relative="1" as="geometry">
            <mxPoint as="offset" />
          </mxGeometry>
        </mxCell>
        <mxCell id="uTipOrtx8uae4RCYPng3-30" style="edgeStyle=elbowEdgeStyle;rounded=0;orthogonalLoop=1;jettySize=auto;html=1;elbow=vertical;curved=0;" parent="1" source="uTipOrtx8uae4RCYPng3-23" target="uTipOrtx8uae4RCYPng3-27" edge="1">
          <mxGeometry relative="1" as="geometry">
            <Array as="points">
              <mxPoint x="380" y="170" />
            </Array>
          </mxGeometry>
        </mxCell>
        <mxCell id="uTipOrtx8uae4RCYPng3-36" value="收到链接消息" style="edgeLabel;html=1;align=center;verticalAlign=middle;resizable=0;points=[];" parent="uTipOrtx8uae4RCYPng3-30" vertex="1" connectable="0">
          <mxGeometry x="-0.1161" relative="1" as="geometry">
            <mxPoint as="offset" />
          </mxGeometry>
        </mxCell>
        <mxCell id="uTipOrtx8uae4RCYPng3-34" value="DefaultImServerHandler" style="shape=umlLifeline;perimeter=lifelinePerimeter;whiteSpace=wrap;html=1;container=0;dropTarget=0;collapsible=0;recursiveResize=0;outlineConnect=0;portConstraint=eastwest;newEdgeStyle={&quot;edgeStyle&quot;:&quot;elbowEdgeStyle&quot;,&quot;elbow&quot;:&quot;vertical&quot;,&quot;curved&quot;:0,&quot;rounded&quot;:0};" parent="1" vertex="1">
          <mxGeometry x="640" y="30" width="150" height="300" as="geometry" />
        </mxCell>
        <mxCell id="uTipOrtx8uae4RCYPng3-35" value="" style="html=1;points=[];perimeter=orthogonalPerimeter;outlineConnect=0;targetShapes=umlLifeline;portConstraint=eastwest;newEdgeStyle={&quot;edgeStyle&quot;:&quot;elbowEdgeStyle&quot;,&quot;elbow&quot;:&quot;vertical&quot;,&quot;curved&quot;:0,&quot;rounded&quot;:0};" parent="uTipOrtx8uae4RCYPng3-34" vertex="1">
          <mxGeometry x="70" y="130" width="10" height="110" as="geometry" />
        </mxCell>
        <mxCell id="uTipOrtx8uae4RCYPng3-37" style="edgeStyle=elbowEdgeStyle;rounded=0;orthogonalLoop=1;jettySize=auto;html=1;elbow=vertical;curved=0;" parent="1" target="uTipOrtx8uae4RCYPng3-35" edge="1">
          <mxGeometry relative="1" as="geometry">
            <mxPoint x="530" y="180" as="sourcePoint" />
            <mxPoint x="715.5" y="198" as="targetPoint" />
            <Array as="points">
              <mxPoint x="623" y="180" />
            </Array>
          </mxGeometry>
        </mxCell>
        <mxCell id="uTipOrtx8uae4RCYPng3-38" value="decode()" style="edgeLabel;html=1;align=center;verticalAlign=middle;resizable=0;points=[];" parent="uTipOrtx8uae4RCYPng3-37" vertex="1" connectable="0">
          <mxGeometry x="-0.0482" y="-2" relative="1" as="geometry">
            <mxPoint as="offset" />
          </mxGeometry>
        </mxCell>
        <mxCell id="uTipOrtx8uae4RCYPng3-39" style="edgeStyle=elbowEdgeStyle;rounded=0;orthogonalLoop=1;jettySize=auto;html=1;elbow=vertical;curved=0;" parent="1" edge="1">
          <mxGeometry relative="1" as="geometry">
            <mxPoint x="710" y="260" as="sourcePoint" />
            <mxPoint x="530" y="260" as="targetPoint" />
            <Array as="points">
              <mxPoint x="620" y="260" />
            </Array>
          </mxGeometry>
        </mxCell>
        <mxCell id="uTipOrtx8uae4RCYPng3-40" value="return Packet" style="edgeLabel;html=1;align=center;verticalAlign=middle;resizable=0;points=[];" parent="uTipOrtx8uae4RCYPng3-39" vertex="1" connectable="0">
          <mxGeometry x="-0.72" y="-1" relative="1" as="geometry">
            <mxPoint x="-65" as="offset" />
          </mxGeometry>
        </mxCell>
        <mxCell id="uTipOrtx8uae4RCYPng3-43" value="DefaultImServerHandler" style="shape=umlLifeline;perimeter=lifelinePerimeter;whiteSpace=wrap;html=1;container=0;dropTarget=0;collapsible=0;recursiveResize=0;outlineConnect=0;portConstraint=eastwest;newEdgeStyle={&quot;edgeStyle&quot;:&quot;elbowEdgeStyle&quot;,&quot;elbow&quot;:&quot;vertical&quot;,&quot;curved&quot;:0,&quot;rounded&quot;:0};" parent="1" vertex="1">
          <mxGeometry x="640" y="360" width="150" height="300" as="geometry" />
        </mxCell>
        <mxCell id="uTipOrtx8uae4RCYPng3-44" value="" style="html=1;points=[];perimeter=orthogonalPerimeter;outlineConnect=0;targetShapes=umlLifeline;portConstraint=eastwest;newEdgeStyle={&quot;edgeStyle&quot;:&quot;elbowEdgeStyle&quot;,&quot;elbow&quot;:&quot;vertical&quot;,&quot;curved&quot;:0,&quot;rounded&quot;:0};" parent="uTipOrtx8uae4RCYPng3-43" vertex="1">
          <mxGeometry x="70" y="90" width="10" height="190" as="geometry" />
        </mxCell>
        <mxCell id="uTipOrtx8uae4RCYPng3-45" style="edgeStyle=elbowEdgeStyle;rounded=0;orthogonalLoop=1;jettySize=auto;html=1;elbow=vertical;curved=0;" parent="1" source="uTipOrtx8uae4RCYPng3-35" target="uTipOrtx8uae4RCYPng3-43" edge="1">
          <mxGeometry relative="1" as="geometry">
            <Array as="points">
              <mxPoint x="850" y="460" />
            </Array>
          </mxGeometry>
        </mxCell>
        <mxCell id="uTipOrtx8uae4RCYPng3-46" value="decode()" style="edgeLabel;html=1;align=center;verticalAlign=middle;resizable=0;points=[];" parent="uTipOrtx8uae4RCYPng3-45" vertex="1" connectable="0">
          <mxGeometry x="-0.1127" y="-3" relative="1" as="geometry">
            <mxPoint as="offset" />
          </mxGeometry>
        </mxCell>
        <mxCell id="uTipOrtx8uae4RCYPng3-47" style="edgeStyle=elbowEdgeStyle;rounded=0;orthogonalLoop=1;jettySize=auto;html=1;elbow=vertical;curved=0;" parent="1" source="uTipOrtx8uae4RCYPng3-44" target="uTipOrtx8uae4RCYPng3-34" edge="1">
          <mxGeometry relative="1" as="geometry">
            <Array as="points">
              <mxPoint x="800" y="250" />
              <mxPoint x="800" y="260" />
            </Array>
          </mxGeometry>
        </mxCell>
        <mxCell id="uTipOrtx8uae4RCYPng3-48" value="return Packet" style="edgeLabel;html=1;align=center;verticalAlign=middle;resizable=0;points=[];" parent="uTipOrtx8uae4RCYPng3-47" vertex="1" connectable="0">
          <mxGeometry x="-0.1039" y="3" relative="1" as="geometry">
            <mxPoint as="offset" />
          </mxGeometry>
        </mxCell>
        <mxCell id="uTipOrtx8uae4RCYPng3-50" value="ProtocolManager" style="shape=umlLifeline;perimeter=lifelinePerimeter;whiteSpace=wrap;html=1;container=0;dropTarget=0;collapsible=0;recursiveResize=0;outlineConnect=0;portConstraint=eastwest;newEdgeStyle={&quot;edgeStyle&quot;:&quot;elbowEdgeStyle&quot;,&quot;elbow&quot;:&quot;vertical&quot;,&quot;curved&quot;:0,&quot;rounded&quot;:0};" parent="1" vertex="1">
          <mxGeometry x="360" y="365" width="150" height="300" as="geometry" />
        </mxCell>
        <mxCell id="uTipOrtx8uae4RCYPng3-51" value="" style="html=1;points=[];perimeter=orthogonalPerimeter;outlineConnect=0;targetShapes=umlLifeline;portConstraint=eastwest;newEdgeStyle={&quot;edgeStyle&quot;:&quot;elbowEdgeStyle&quot;,&quot;elbow&quot;:&quot;vertical&quot;,&quot;curved&quot;:0,&quot;rounded&quot;:0};" parent="uTipOrtx8uae4RCYPng3-50" vertex="1">
          <mxGeometry x="70" y="85" width="10" height="55" as="geometry" />
        </mxCell>
        <mxCell id="uTipOrtx8uae4RCYPng3-52" style="edgeStyle=elbowEdgeStyle;rounded=0;orthogonalLoop=1;jettySize=auto;html=1;elbow=vertical;curved=0;" parent="1" source="uTipOrtx8uae4RCYPng3-44" target="uTipOrtx8uae4RCYPng3-50" edge="1">
          <mxGeometry relative="1" as="geometry">
            <Array as="points">
              <mxPoint x="640" y="470" />
              <mxPoint x="610" y="520" />
            </Array>
          </mxGeometry>
        </mxCell>
        <mxCell id="uTipOrtx8uae4RCYPng3-53" value="initProtocolHandler()" style="edgeLabel;html=1;align=center;verticalAlign=middle;resizable=0;points=[];" parent="uTipOrtx8uae4RCYPng3-52" vertex="1" connectable="0">
          <mxGeometry x="0.2356" relative="1" as="geometry">
            <mxPoint as="offset" />
          </mxGeometry>
        </mxCell>
        <mxCell id="uTipOrtx8uae4RCYPng3-54" style="edgeStyle=elbowEdgeStyle;rounded=0;orthogonalLoop=1;jettySize=auto;html=1;elbow=vertical;curved=0;" parent="1" source="uTipOrtx8uae4RCYPng3-51" target="uTipOrtx8uae4RCYPng3-44" edge="1">
          <mxGeometry relative="1" as="geometry">
            <Array as="points">
              <mxPoint x="660" y="490" />
            </Array>
          </mxGeometry>
        </mxCell>
        <mxCell id="uTipOrtx8uae4RCYPng3-55" value="return&amp;nbsp;AbstractProtocolHandler" style="edgeLabel;html=1;align=center;verticalAlign=middle;resizable=0;points=[];" parent="uTipOrtx8uae4RCYPng3-54" vertex="1" connectable="0">
          <mxGeometry x="-0.1052" y="2" relative="1" as="geometry">
            <mxPoint as="offset" />
          </mxGeometry>
        </mxCell>
        <mxCell id="uTipOrtx8uae4RCYPng3-63" value="AbstractProtocolHandler" style="shape=umlLifeline;perimeter=lifelinePerimeter;whiteSpace=wrap;html=1;container=0;dropTarget=0;collapsible=0;recursiveResize=0;outlineConnect=0;portConstraint=eastwest;newEdgeStyle={&quot;edgeStyle&quot;:&quot;elbowEdgeStyle&quot;,&quot;elbow&quot;:&quot;vertical&quot;,&quot;curved&quot;:0,&quot;rounded&quot;:0};" parent="1" vertex="1">
          <mxGeometry x="160" y="365" width="150" height="300" as="geometry" />
        </mxCell>
        <mxCell id="uTipOrtx8uae4RCYPng3-64" value="" style="html=1;points=[];perimeter=orthogonalPerimeter;outlineConnect=0;targetShapes=umlLifeline;portConstraint=eastwest;newEdgeStyle={&quot;edgeStyle&quot;:&quot;elbowEdgeStyle&quot;,&quot;elbow&quot;:&quot;vertical&quot;,&quot;curved&quot;:0,&quot;rounded&quot;:0};" parent="uTipOrtx8uae4RCYPng3-63" vertex="1">
          <mxGeometry x="70" y="140" width="10" height="55" as="geometry" />
        </mxCell>
        <mxCell id="uTipOrtx8uae4RCYPng3-65" style="edgeStyle=elbowEdgeStyle;rounded=0;orthogonalLoop=1;jettySize=auto;html=1;elbow=vertical;curved=0;" parent="1" source="uTipOrtx8uae4RCYPng3-44" target="uTipOrtx8uae4RCYPng3-63" edge="1">
          <mxGeometry relative="1" as="geometry">
            <Array as="points">
              <mxPoint x="550" y="510" />
            </Array>
          </mxGeometry>
        </mxCell>
        <mxCell id="uTipOrtx8uae4RCYPng3-66" value="decode()" style="edgeLabel;html=1;align=center;verticalAlign=middle;resizable=0;points=[];" parent="uTipOrtx8uae4RCYPng3-65" vertex="1" connectable="0">
          <mxGeometry x="0.5731" y="2" relative="1" as="geometry">
            <mxPoint as="offset" />
          </mxGeometry>
        </mxCell>
        <mxCell id="uTipOrtx8uae4RCYPng3-67" style="edgeStyle=elbowEdgeStyle;rounded=0;orthogonalLoop=1;jettySize=auto;html=1;elbow=vertical;curved=0;" parent="1" source="uTipOrtx8uae4RCYPng3-64" target="uTipOrtx8uae4RCYPng3-43" edge="1">
          <mxGeometry relative="1" as="geometry" />
        </mxCell>
        <mxCell id="uTipOrtx8uae4RCYPng3-68" value="return Packet" style="edgeLabel;html=1;align=center;verticalAlign=middle;resizable=0;points=[];" parent="uTipOrtx8uae4RCYPng3-67" vertex="1" connectable="0">
          <mxGeometry x="0.079" y="-2" relative="1" as="geometry">
            <mxPoint as="offset" />
          </mxGeometry>
        </mxCell>
      </root>
    </mxGraphModel>
  </diagram>
</mxfile>
